<svg width="32" height="32" viewBox="0 0 32 32" fill="none" xmlns="http://www.w3.org/2000/svg">
    <!-- Fondo circular -->
    <circle cx="16" cy="16" r="16" fill="#d97706"/>

    <!-- Sombra del chef hat -->
    <ellipse cx="16.5" cy="26" rx="8" ry="1.5" fill="#b45309" opacity="0.3"/>

    <!-- Chef Hat Base -->
    <ellipse cx="16" cy="24" rx="7" ry="2" fill="#ffffff"/>

    <!-- Chef Hat Top -->
    <path d="M12 16c0-2.5 1.5-4.5 4-4.5s4 2 4 4.5c0 1-0.3 1.9-0.8 2.7-0.5 0.8-1.2 1.5-2 2-0.4 0.3-0.8 0.5-1.2 0.6-0.4 0.1-0.8 0.2-1.2 0.2h-1.6c-0.4 0-0.8-0.1-1.2-0.2-0.4-0.1-0.8-0.3-1.2-0.6-0.8-0.5-1.5-1.2-2-2C12.3 17.9 12 17 12 16z" fill="#ffffff"/>

    <!-- Chef Hat Details -->
    <circle cx="14" cy="16" r="0.8" fill="#f3f4f6"/>
    <circle cx="16" cy="14" r="0.8" fill="#f3f4f6"/>
    <circle cx="18" cy="16" r="0.8" fill="#f3f4f6"/>

    <!-- Decorative star -->
    <path d="M16 8l0.8 2.4 2.4 0.8-2.4 0.8-0.8 2.4-0.8-2.4-2.4-0.8 2.4-0.8z" fill="#fbbf24"/>
</svg>
